<svg width="24" height="22" viewBox="0 0 24 22" fill="none" xmlns="http://www.w3.org/2000/svg">
<g clip-path="url(#clip0_4103_363)">
<path d="M17.3498 15.8826L17.3787 15.6342C17.699 15.6715 18.0091 15.756 18.2997 15.8826H17.3498ZM17.3498 15.8826V16.1326H18.2466C17.9649 16.0041 17.6627 15.919 17.3498 15.8826ZM16.656 15.8826V16.1326H15.7592C16.0409 16.0041 16.3432 15.919 16.656 15.8826ZM16.656 15.8826L16.6271 15.6342C16.3068 15.6715 15.9967 15.756 15.7061 15.8826H16.656ZM10.3516 15.8826L10.3806 15.6342C10.7009 15.6715 11.0109 15.756 11.3016 15.8826H10.3516ZM10.3516 15.8826V16.1326H11.2484C10.9667 16.0041 10.6645 15.919 10.3516 15.8826ZM9.65782 15.8826V16.1326H8.76106C9.04273 16.0041 9.34497 15.919 9.65782 15.8826ZM9.65782 15.8826L9.62889 15.6342C9.30859 15.6715 8.99855 15.756 8.70789 15.8826H9.65782ZM11.254 18.8395C11.2558 19.0869 11.1842 19.3292 11.0481 19.5358C10.912 19.7425 10.7175 19.9041 10.4894 20.0001C10.2613 20.0962 10.0099 20.1223 9.7669 20.0752C9.52394 20.028 9.30045 19.9098 9.12478 19.7355C8.94911 19.5612 8.82918 19.3386 8.7802 19.096C8.73121 18.8534 8.75539 18.6017 8.84966 18.3729C8.94392 18.1441 9.10404 17.9484 9.30968 17.8107C9.51521 17.6731 9.75697 17.5995 10.0043 17.5995C10.3344 17.5985 10.6514 17.7285 10.8857 17.961C11.12 18.1935 11.2524 18.5095 11.254 18.8395ZM11.254 18.8395C11.254 18.8397 11.254 18.8398 11.254 18.84L11.004 18.8411L11.254 18.8392C11.254 18.8393 11.254 18.8394 11.254 18.8395ZM18.2522 18.8399C18.2539 19.0871 18.1823 19.3293 18.0463 19.5358C17.9102 19.7425 17.7157 19.9041 17.4876 20.0001C17.2595 20.0962 17.008 20.1223 16.7651 20.0752C16.5221 20.028 16.2986 19.9098 16.123 19.7355C15.9473 19.5612 15.8274 19.3386 15.7784 19.096C15.7294 18.8534 15.7536 18.6017 15.8478 18.3729C15.9421 18.1441 16.1022 17.9484 16.3079 17.8107C16.5134 17.6731 16.7551 17.5995 17.0025 17.5995C17.3326 17.5985 17.6496 17.7285 17.8839 17.961C18.1182 18.1936 18.2507 18.5097 18.2522 18.8399ZM18.2522 18.8399C18.2522 18.8399 18.2522 18.84 18.2522 18.84L18.0022 18.8411L18.2522 18.8392C18.2522 18.8394 18.2522 18.8397 18.2522 18.8399ZM23.6027 4.5378L23.6028 4.53792C23.6717 4.62954 23.7181 4.73606 23.7383 4.84891C23.7585 4.96177 23.7519 5.07778 23.719 5.18761L20.7206 15.1025C20.7205 15.1026 20.7205 15.1027 20.7205 15.1029C20.6734 15.2564 20.5782 15.3908 20.449 15.4861C20.3197 15.5816 20.1631 15.6329 20.0024 15.6326H20.0018H17.3498L17.3209 16.1309C18.0174 16.212 18.6565 16.5564 19.1074 17.0934C19.5582 17.6304 19.7867 18.3195 19.7461 19.0195C19.7055 19.7195 19.3987 20.3775 18.8888 20.8587C18.3788 21.34 17.7041 21.6081 17.0029 21.6081C16.3017 21.6081 15.627 21.34 15.1171 20.8587C14.6071 20.3775 14.3003 19.7195 14.2597 19.0195C14.2191 18.3195 14.4476 17.6304 14.8985 17.0934C15.3493 16.5564 15.9884 16.212 16.6849 16.1309L16.656 15.6326H10.3516L10.3227 16.1309C11.0192 16.212 11.6583 16.5564 12.1092 17.0934C12.5601 17.6304 12.7886 18.3195 12.7479 19.0195C12.7073 19.7195 12.4006 20.3775 11.8906 20.8587C11.3806 21.34 10.7059 21.6081 10.0047 21.6081C9.30353 21.6081 8.62886 21.34 8.11887 20.8587C7.60888 20.3775 7.30217 19.7195 7.26153 19.0195C7.22089 18.3195 7.4494 17.6304 7.90027 17.0934C8.35114 16.5564 8.99026 16.212 9.68675 16.1309L9.65782 15.6326L7.00473 15.6326L7.00403 15.6326C6.84176 15.633 6.68375 15.5807 6.55381 15.4835C6.42392 15.3863 6.32913 15.2496 6.28371 15.0939C6.28369 15.0938 6.28367 15.0938 6.28365 15.0937L2.49077 1.93042L2.43907 1.751L2.25236 1.74964L0.251781 1.7351L0.262388 0.251812L3.01236 0.271813L3.01296 0.271816C3.17425 0.272602 3.33097 0.325489 3.45975 0.422593C3.58844 0.519623 3.68235 0.655608 3.72751 0.810309C3.72755 0.810429 3.72758 0.81055 3.72762 0.81067L7.5194 13.975L7.57148 14.1558H7.75964H19.2578H19.4434L19.4971 13.9782L20.4037 10.9815L20.5012 10.6591H20.1644H10.2547V9.17473H20.7589H20.9442L20.9981 8.99743L21.8959 6.04324L21.994 5.72055H21.6567H8.25509V4.23727H23.0007L23.0008 4.23727C23.1176 4.23724 23.2327 4.26438 23.3372 4.31654C23.4416 4.3687 23.5325 4.44445 23.6027 4.5378Z" fill="#71717A" stroke="#71717A" stroke-width="0.5"/>
</g>
<defs>
<clipPath id="clip0_4103_363">
<rect width="24" height="21.8182" fill="white"/>
</clipPath>
</defs>
</svg>
