<svg width="24" height="24" viewBox="0 0 24 24" fill="none" xmlns="http://www.w3.org/2000/svg">
<path d="M23.8333 21.9779L18.1426 16.2872C18.0903 16.2346 18.0279 16.1929 17.9592 16.1648C17.8905 16.1366 17.8169 16.1225 17.7426 16.1232H17.124C18.7741 14.2135 19.6192 11.7382 19.4815 9.218C19.3437 6.69785 18.2339 4.32936 16.3855 2.61081C14.537 0.892263 12.0941 -0.0423611 9.57061 0.00356923C7.04711 0.0494996 4.6398 1.0724 2.85512 2.85708C1.07045 4.64175 0.0475465 7.04907 0.00161611 9.57256C-0.0443142 12.0961 0.89031 14.539 2.60886 16.3874C4.3274 18.2359 6.6959 19.3457 9.21605 19.4834C11.7362 19.6212 14.2115 18.7761 16.1213 17.1259V17.7446C16.1219 17.8941 16.1808 18.0376 16.2853 18.1446L21.976 23.8352C22.0283 23.8881 22.0906 23.9301 22.1592 23.9588C22.2279 23.9874 22.3016 24.0022 22.376 24.0022C22.4504 24.0022 22.524 23.9874 22.5927 23.9588C22.6613 23.9301 22.7236 23.8881 22.776 23.8352L23.8346 22.7766C23.8872 22.7242 23.9289 22.6619 23.9574 22.5933C23.9858 22.5247 24.0004 22.4512 24.0002 22.377C24.0001 22.3027 23.9853 22.2292 23.9566 22.1608C23.928 22.0923 23.8861 22.0301 23.8333 21.9779ZM9.74796 17.2486C8.2646 17.2486 6.81455 16.8087 5.58118 15.9846C4.34781 15.1605 3.38652 13.9891 2.81886 12.6187C2.2512 11.2483 2.10268 9.74026 2.39207 8.2854C2.68146 6.83054 3.39576 5.49417 4.44466 4.44527C5.49355 3.39638 6.82992 2.68208 8.28478 2.39269C9.73964 2.1033 11.2476 2.25182 12.6181 2.81948C13.9885 3.38714 15.1599 4.34843 15.984 5.5818C16.8081 6.81517 17.248 8.26522 17.248 9.74858C17.2483 10.7336 17.0546 11.709 16.6778 12.6191C16.301 13.5292 15.7485 14.3561 15.052 15.0527C14.3555 15.7492 13.5286 16.3016 12.6185 16.6784C11.7084 17.0552 10.733 17.2489 9.74796 17.2486Z" fill="#71717A"/>
</svg>
