<svg xmlns="http://www.w3.org/2000/svg" xmlns:xlink="http://www.w3.org/1999/xlink"><defs><clipPath id="a"><path fill="#fff" d="M0 0h24v21.818H0z"/></clipPath></defs><symbol id="basket"><g fill="none"><g clip-path="url(#a)"><path d="m17.35 15.883.029-.249c.32.037.63.122.92.249h-.95Zm0 0v.25h.897a2.994 2.994 0 0 0-.897-.25Zm-.694 0v.25h-.897c.282-.129.584-.214.897-.25Zm0 0-.029-.249c-.32.037-.63.122-.92.249h.949Zm-6.304 0 .029-.249c.32.037.63.122.92.249h-.95Zm0 0v.25h.896a2.994 2.994 0 0 0-.896-.25Zm-.694 0v.25H8.76c.282-.129.584-.214.897-.25Zm0 0-.03-.249c-.32.037-.63.122-.92.249h.95Zm1.596 2.957a1.249 1.249 0 1 1-2.498.018 1.249 1.249 0 0 1 2.498-.018Zm0 0-.25.001.25-.002Zm6.998 0a1.25 1.25 0 1 1-2.499.017 1.25 1.25 0 0 1 2.5-.017Zm0 0-.25.001.25-.002Zm5.35-14.302a.732.732 0 0 1 .117.65l-2.998 9.915a.75.75 0 0 1-.719.53H17.35l-.03.498a2.748 2.748 0 1 1-.635 0l-.029-.498h-6.304l-.03.498a2.748 2.748 0 1 1-.635 0l-.03-.498H7.005a.749.749 0 0 1-.72-.54L2.49 1.93l-.052-.179-.187-.001-2-.015.01-1.483 2.75.02h.001a.748.748 0 0 1 .715.538l3.791 13.165.052.18h11.872l.054-.177.907-2.996.097-.323H10.254V9.175H20.945l.054-.178.898-2.954.098-.322H8.255V4.237h14.746a.753.753 0 0 1 .602.3Z" fill="#71717A" stroke="#71717A" stroke-width=".5"/></g></g></symbol><symbol id="search"><g fill="none"><path d="m23.833 21.978-5.69-5.69a.555.555 0 0 0-.4-.165h-.619a9.748 9.748 0 1 0-1.003 1.003v.619c0 .15.06.293.164.4l5.691 5.69a.563.563 0 0 0 .8 0l1.059-1.058a.564.564 0 0 0-.002-.8Zm-14.085-4.73a7.5 7.5 0 1 1 0-15 7.5 7.5 0 0 1 0 15Z" fill="#71717A"/></g></symbol><symbol id="select"><g fill="none"><path d="M19.46 2C15.375 2 14 5.624 14 5.624S12.625 2 8.54 2C4.46 2 2 5.891 2 9.099c0 5.375 12 13.567 12 13.567S26 14.476 26 9.1C26 5.89 23.542 2 19.46 2Z" stroke="#71717A" stroke-width="2.2"/></g></symbol><symbol id="sprite"/><symbol id="star"><g fill="none"><path fill-rule="evenodd" clip-rule="evenodd" d="M15.655 7.34a1.37 1.37 0 0 0 .28-1.327 1.292 1.292 0 0 0-.975-.902l-3.726-.768a.386.386 0 0 1-.258-.197L9.124.687A1.265 1.265 0 0 0 8 0c-.472 0-.892.257-1.122.687l-1.853 3.46a.385.385 0 0 1-.259.196l-3.726.768a1.292 1.292 0 0 0-.975.902 1.367 1.367 0 0 0 .28 1.327l2.583 2.905a.409.409 0 0 1 .098.317l-.45 3.935a1.35 1.35 0 0 0 .521 1.245c.227.17.488.258.752.258.184 0 .369-.042.544-.127L7.84 14.21a.368.368 0 0 1 .32 0l3.448 1.663a1.228 1.228 0 0 0 1.296-.132 1.35 1.35 0 0 0 .522-1.244l-.451-3.933a.406.406 0 0 1 .1-.319l2.58-2.905Z" fill="#FFC100"/></g></symbol></svg>