<svg width="16" height="16" viewBox="0 0 16 16" fill="none" xmlns="http://www.w3.org/2000/svg">
<path d="M6.1113 4.10591C6.03995 4.17515 6 4.2681 6 4.36489C6 4.46168 6.03995 4.55462 6.1113 4.62386L10.0977 8.5L6.1113 12.3754C6.03995 12.4446 6 12.5375 6 12.6343C6 12.7311 6.03995 12.8241 6.1113 12.8933C6.14598 12.9271 6.18745 12.9539 6.23325 12.9722C6.27906 12.9906 6.32827 13 6.37799 13C6.4277 13 6.47692 12.9906 6.52272 12.9722C6.56853 12.9539 6.60999 12.9271 6.64468 12.8933L10.8839 8.77061C10.9583 8.69821 11 8.6011 11 8.5C11 8.3989 10.9583 8.30179 10.8839 8.22939L6.64468 4.10668C6.60999 4.07292 6.56853 4.04609 6.52272 4.02776C6.47692 4.00944 6.4277 4 6.37799 4C6.32827 4 6.27906 4.00944 6.23325 4.02776C6.18745 4.04609 6.14598 4.07292 6.1113 4.10668V4.10591Z" fill="#64748B"/>
</svg>
