<svg width="152" height="40" viewBox="0 0 152 40" fill="none" xmlns="http://www.w3.org/2000/svg">
<path d="M69.3906 7.11133H73.0831C74.6845 7.11133 75.8927 7.34151 76.7076 7.80187C77.5225 8.26223 77.9299 9.05662 77.9299 10.1851C77.9299 10.6566 77.845 11.0833 77.6753 11.4651C77.5112 11.8412 77.2707 12.1528 76.9538 12.3998C76.6369 12.6412 76.2464 12.804 75.7824 12.8883V12.9725C76.2634 13.0567 76.6906 13.2054 77.0641 13.4188C77.4432 13.6321 77.7403 13.9381 77.9554 14.3367C78.1761 14.7353 78.2864 15.2518 78.2864 15.8862C78.2864 16.6385 78.1053 17.2785 77.7432 17.8062C77.3867 18.3339 76.8745 18.7353 76.2068 19.0104C75.5447 19.2855 74.7581 19.4231 73.847 19.4231H69.3906V7.11133ZM71.4278 12.1893H73.3802C74.3026 12.1893 74.942 12.0405 75.2985 11.743C75.655 11.4454 75.8333 11.0103 75.8333 10.4377C75.8333 9.85383 75.6211 9.43277 75.1967 9.17452C74.7779 8.91627 74.1102 8.78715 73.1934 8.78715H71.4278V12.1893ZM71.4278 13.823V17.7304H73.5754C74.5261 17.7304 75.1938 17.548 75.5786 17.183C75.9634 16.8181 76.1558 16.3241 76.1558 15.7009C76.1558 15.3192 76.0681 14.9879 75.8927 14.7072C75.7229 14.4265 75.4428 14.2104 75.0524 14.0588C74.6619 13.9016 74.1356 13.823 73.4735 13.823H71.4278Z" fill="#2B495A"/>
<path d="M84.3896 9.924C85.2271 9.924 85.9458 10.0952 86.5456 10.4377C87.1454 10.7802 87.6066 11.2658 87.9292 11.8946C88.2518 12.5233 88.413 13.2756 88.413 14.1514V15.2125H82.1401C82.1628 16.1164 82.4061 16.8125 82.8701 17.3009C83.3398 17.7894 83.9963 18.0336 84.8394 18.0336C85.4393 18.0336 85.9769 17.9774 86.4522 17.8652C86.9332 17.7473 87.4284 17.576 87.9377 17.3515V18.9599C87.468 19.1789 86.9898 19.3389 86.5032 19.4399C86.0165 19.541 85.4336 19.5915 84.7546 19.5915C83.8322 19.5915 83.0201 19.4147 82.3184 19.061C81.6223 18.7017 81.0763 18.1683 80.6801 17.4609C80.2897 16.7536 80.0944 15.875 80.0944 14.8251C80.0944 13.7809 80.2727 12.8939 80.6292 12.164C80.9857 11.4342 81.4865 10.8784 82.1316 10.4966C82.7768 10.1149 83.5294 9.924 84.3896 9.924ZM84.3896 11.4145C83.7614 11.4145 83.2521 11.6167 82.8616 12.0209C82.4768 12.4251 82.2505 13.0174 82.1826 13.7977H86.4607C86.4551 13.3318 86.3758 12.9191 86.223 12.5598C86.0759 12.2005 85.8496 11.9198 85.544 11.7177C85.244 11.5156 84.8592 11.4145 84.3896 11.4145Z" fill="#2B495A"/>
<path d="M96.9778 16.762C96.9778 17.3739 96.8278 17.8904 96.5279 18.3115C96.228 18.7325 95.7894 19.0525 95.2122 19.2715C94.6407 19.4848 93.939 19.5915 93.1071 19.5915C92.4507 19.5915 91.8848 19.5438 91.4094 19.4483C90.9397 19.3585 90.4955 19.2182 90.0768 19.0273V17.3178C90.5238 17.5255 91.0246 17.7052 91.5792 17.8567C92.1394 18.0083 92.6685 18.0841 93.1665 18.0841C93.8229 18.0841 94.2955 17.9831 94.5841 17.7809C94.8727 17.5732 95.017 17.2981 95.017 16.9557C95.017 16.7536 94.9576 16.5739 94.8387 16.4167C94.7255 16.2539 94.5105 16.0883 94.1936 15.9199C93.8824 15.7458 93.424 15.5381 92.8185 15.2967C92.2243 15.0609 91.7235 14.8251 91.3161 14.5893C90.9086 14.3535 90.6002 14.07 90.3908 13.7388C90.1814 13.4019 90.0768 12.9725 90.0768 12.4504C90.0768 11.6251 90.405 10.9991 91.0614 10.5724C91.7235 10.1401 92.5978 9.924 93.6843 9.924C94.2615 9.924 94.8048 9.98295 95.3141 10.1008C95.829 10.2131 96.3327 10.3787 96.825 10.5977L96.1969 12.0882C95.7724 11.903 95.3452 11.7514 94.9151 11.6335C94.4907 11.51 94.0578 11.4482 93.6164 11.4482C93.1014 11.4482 92.7081 11.5268 92.4365 11.684C92.1705 11.8412 92.0376 12.0658 92.0376 12.3577C92.0376 12.5767 92.1026 12.7619 92.2328 12.9135C92.363 13.0651 92.5865 13.2167 92.9034 13.3683C93.2259 13.5198 93.673 13.7079 94.2445 13.9325C94.8048 14.1458 95.2886 14.3704 95.696 14.6062C96.1091 14.8363 96.426 15.1199 96.6467 15.4567C96.8674 15.7936 96.9778 16.2286 96.9778 16.762Z" fill="#2B495A"/>
<path d="M102.631 17.9915C102.891 17.9915 103.149 17.969 103.403 17.9241C103.658 17.8736 103.89 17.8146 104.1 17.7473V19.2462C103.879 19.3417 103.593 19.4231 103.242 19.4904C102.891 19.5578 102.526 19.5915 102.147 19.5915C101.615 19.5915 101.137 19.5045 100.713 19.3304C100.288 19.1508 99.9515 18.8448 99.7026 18.4125C99.4536 17.9802 99.3291 17.3823 99.3291 16.6188V11.6082H98.0473V10.724L99.4224 10.0251L100.076 8.02924H101.332V10.1008H104.023V11.6082H101.332V16.5936C101.332 17.0651 101.451 17.416 101.689 17.6462C101.926 17.8764 102.241 17.9915 102.631 17.9915Z" fill="#2B495A"/>
<path d="M114.311 19.5915C113.423 19.5915 112.653 19.4203 112.002 19.0778C111.351 18.7353 110.851 18.2104 110.5 17.503C110.149 16.7957 109.973 15.8974 109.973 14.8083C109.973 13.6742 110.166 12.7479 110.551 12.0293C110.935 11.3107 111.467 10.7802 112.146 10.4377C112.831 10.0952 113.615 9.924 114.498 9.924C115.058 9.924 115.564 9.98014 116.017 10.0924C116.476 10.1991 116.863 10.331 117.18 10.4882L116.586 12.0714C116.241 11.931 115.887 11.8132 115.525 11.7177C115.163 11.6223 114.815 11.5746 114.481 11.5746C113.932 11.5746 113.473 11.6953 113.106 11.9367C112.743 12.1781 112.472 12.5374 112.291 13.0146C112.115 13.4918 112.028 14.0841 112.028 14.7914C112.028 15.4764 112.118 16.0546 112.299 16.5262C112.48 16.9922 112.749 17.3459 113.106 17.5873C113.462 17.8231 113.901 17.941 114.421 17.941C114.936 17.941 115.398 17.8792 115.805 17.7557C116.212 17.6322 116.597 17.4722 116.959 17.2757V18.9936C116.603 19.1957 116.221 19.3445 115.813 19.4399C115.406 19.541 114.905 19.5915 114.311 19.5915Z" fill="#2B495A"/>
<path d="M127.485 14.7409C127.485 15.5157 127.383 16.2034 127.179 16.8041C126.976 17.4048 126.679 17.9129 126.288 18.3283C125.898 18.7382 125.428 19.0525 124.879 19.2715C124.33 19.4848 123.71 19.5915 123.02 19.5915C122.375 19.5915 121.784 19.4848 121.246 19.2715C120.708 19.0525 120.242 18.7382 119.845 18.3283C119.455 17.9129 119.152 17.4048 118.937 16.8041C118.722 16.2034 118.615 15.5157 118.615 14.7409C118.615 13.7135 118.793 12.8433 119.149 12.1303C119.512 11.4117 120.027 10.8644 120.694 10.4882C121.362 10.1121 122.157 9.924 123.079 9.924C123.945 9.924 124.709 10.1121 125.371 10.4882C126.033 10.8644 126.551 11.4117 126.925 12.1303C127.298 12.849 127.485 13.7191 127.485 14.7409ZM120.669 14.7409C120.669 15.4202 120.751 16.0013 120.915 16.4841C121.085 16.9669 121.345 17.3374 121.696 17.5957C122.047 17.8483 122.499 17.9746 123.054 17.9746C123.609 17.9746 124.061 17.8483 124.412 17.5957C124.763 17.3374 125.02 16.9669 125.185 16.4841C125.349 16.0013 125.431 15.4202 125.431 14.7409C125.431 14.0616 125.349 13.4862 125.185 13.0146C125.02 12.5374 124.763 12.1753 124.412 11.9282C124.061 11.6756 123.606 11.5493 123.046 11.5493C122.219 11.5493 121.617 11.8244 121.238 12.3746C120.858 12.9247 120.669 13.7135 120.669 14.7409Z" fill="#2B495A"/>
<path d="M131.772 10.1008V19.4231H129.777V10.1008H131.772ZM130.787 6.53027C131.092 6.53027 131.356 6.61168 131.576 6.77449C131.803 6.9373 131.916 7.218 131.916 7.6166C131.916 8.00959 131.803 8.2903 131.576 8.45872C131.356 8.62153 131.092 8.70293 130.787 8.70293C130.47 8.70293 130.201 8.62153 129.981 8.45872C129.765 8.2903 129.658 8.00959 129.658 7.6166C129.658 7.218 129.765 6.9373 129.981 6.77449C130.201 6.61168 130.47 6.53027 130.787 6.53027Z" fill="#2B495A"/>
<path d="M139.53 9.924C140.588 9.924 141.412 10.1963 142 10.7409C142.594 11.2798 142.891 12.1472 142.891 13.343V19.4231H140.897V13.7135C140.897 12.9893 140.747 12.4475 140.447 12.0882C140.147 11.7233 139.683 11.5409 139.055 11.5409C138.143 11.5409 137.51 11.8188 137.153 12.3746C136.802 12.9304 136.627 13.736 136.627 14.7914V19.4231H134.632V10.1008H136.186L136.466 11.364H136.576C136.78 11.0384 137.032 10.7717 137.331 10.564C137.637 10.3507 137.977 10.1907 138.35 10.084C138.729 9.97734 139.122 9.924 139.53 9.924Z" fill="#2B495A"/>
<path d="M151.999 16.762C151.999 17.3739 151.849 17.8904 151.549 18.3115C151.25 18.7325 150.811 19.0525 150.234 19.2715C149.662 19.4848 148.96 19.5915 148.129 19.5915C147.472 19.5915 146.906 19.5438 146.431 19.4483C145.961 19.3585 145.517 19.2182 145.098 19.0273V17.3178C145.545 17.5255 146.046 17.7052 146.601 17.8567C147.161 18.0083 147.69 18.0841 148.188 18.0841C148.844 18.0841 149.317 17.9831 149.606 17.7809C149.894 17.5732 150.039 17.2981 150.039 16.9557C150.039 16.7536 149.979 16.5739 149.86 16.4167C149.747 16.2539 149.532 16.0883 149.215 15.9199C148.904 15.7458 148.446 15.5381 147.84 15.2967C147.246 15.0609 146.745 14.8251 146.338 14.5893C145.93 14.3535 145.622 14.07 145.412 13.7388C145.203 13.4019 145.098 12.9725 145.098 12.4504C145.098 11.6251 145.427 10.9991 146.083 10.5724C146.745 10.1401 147.619 9.924 148.706 9.924C149.283 9.924 149.826 9.98295 150.336 10.1008C150.851 10.2131 151.354 10.3787 151.847 10.5977L151.218 12.0882C150.794 11.903 150.367 11.7514 149.937 11.6335C149.512 11.51 149.079 11.4482 148.638 11.4482C148.123 11.4482 147.73 11.5268 147.458 11.684C147.192 11.8412 147.059 12.0658 147.059 12.3577C147.059 12.5767 147.124 12.7619 147.254 12.9135C147.384 13.0651 147.608 13.2167 147.925 13.3683C148.247 13.5198 148.695 13.7079 149.266 13.9325C149.826 14.1458 150.31 14.3704 150.718 14.6062C151.131 14.8363 151.448 15.1199 151.668 15.4567C151.889 15.7936 151.999 16.2286 151.999 16.762Z" fill="#2B495A"/>
<path d="M70.7031 26.8581V32.6983H69.4644V26.8581H70.7031ZM70.0917 24.6212C70.2814 24.6212 70.4448 24.6722 70.5818 24.7741C70.7224 24.8761 70.7927 25.052 70.7927 25.3017C70.7927 25.5479 70.7224 25.7238 70.5818 25.8293C70.4448 25.9313 70.2814 25.9823 70.0917 25.9823C69.8949 25.9823 69.728 25.9313 69.5909 25.8293C69.4574 25.7238 69.3906 25.5479 69.3906 25.3017C69.3906 25.052 69.4574 24.8761 69.5909 24.7741C69.728 24.6722 69.8949 24.6212 70.0917 24.6212Z" fill="#2B495A"/>
<path d="M75.5207 26.7473C76.1778 26.7473 76.6891 26.9179 77.0545 27.259C77.4235 27.5967 77.608 28.1401 77.608 28.8892V32.6983H76.3693V29.1214C76.3693 28.6677 76.2762 28.3283 76.09 28.1032C75.9037 27.8745 75.6156 27.7602 75.2255 27.7602C74.6598 27.7602 74.2662 27.9343 74.0448 28.2825C73.827 28.6307 73.718 29.1354 73.718 29.7967V32.6983H72.4794V26.8581H73.444L73.6179 27.6494H73.6864C73.8129 27.4454 73.9693 27.2784 74.1555 27.1482C74.3453 27.0146 74.5561 26.9143 74.788 26.8475C75.0235 26.7807 75.2677 26.7473 75.5207 26.7473Z" fill="#2B495A"/>
<path d="M84.3179 31.8015C84.4795 31.8015 84.6394 31.7874 84.7975 31.7593C84.9557 31.7276 85.0997 31.6907 85.2297 31.6485V32.5875C85.0927 32.6473 84.9152 32.6983 84.6974 32.7405C84.4795 32.7828 84.2529 32.8039 84.0174 32.8039C83.6871 32.8039 83.3902 32.7493 83.1266 32.6403C82.8631 32.5278 82.654 32.3361 82.4994 32.0652C82.3448 31.7944 82.2675 31.4198 82.2675 30.9415V27.8024H81.4716V27.2485L82.3255 26.8106L82.7313 25.5602H83.5114V26.8581H85.1823V27.8024H83.5114V30.9257C83.5114 31.2211 83.5852 31.4409 83.7328 31.5852C83.8804 31.7294 84.0754 31.8015 84.3179 31.8015Z" fill="#2B495A"/>
<path d="M87.6544 24.4893V26.5521C87.6544 26.7666 87.6473 26.9759 87.6333 27.1799C87.6227 27.3839 87.6104 27.5422 87.5964 27.6547H87.6649C87.7879 27.4507 87.939 27.2837 88.1182 27.1535C88.2974 27.0199 88.4977 26.9196 88.7191 26.8528C88.944 26.786 89.1829 26.7526 89.4359 26.7526C89.8822 26.7526 90.2617 26.8282 90.5745 26.9794C90.8872 27.1271 91.1261 27.3575 91.2913 27.6705C91.46 27.9836 91.5443 28.3898 91.5443 28.8892V32.6983H90.3056V29.1214C90.3056 28.6677 90.2125 28.3283 90.0263 28.1032C89.84 27.8745 89.5519 27.7602 89.1618 27.7602C88.7859 27.7602 88.4872 27.8394 88.2658 27.9976C88.0479 28.1524 87.8916 28.3828 87.7967 28.6888C87.7018 28.9912 87.6544 29.3605 87.6544 29.7967V32.6983H86.4157V24.4893H87.6544Z" fill="#2B495A"/>
<path d="M95.6029 26.7473C96.123 26.7473 96.5692 26.8546 96.9417 27.0691C97.3142 27.2837 97.6006 27.5879 97.8009 27.9818C98.0012 28.3757 98.1013 28.847 98.1013 29.3957V30.0605H94.2061C94.2202 30.6267 94.3713 31.0629 94.6594 31.3688C94.9511 31.6748 95.3587 31.8278 95.8823 31.8278C96.2547 31.8278 96.5886 31.7927 96.8837 31.7223C97.1824 31.6485 97.4899 31.5412 97.8062 31.4005V32.4082C97.5145 32.5453 97.2176 32.6456 96.9154 32.7089C96.6132 32.7722 96.2512 32.8039 95.8296 32.8039C95.2568 32.8039 94.7525 32.6931 94.3168 32.4715C93.8846 32.2464 93.5455 31.9123 93.2995 31.4691C93.0571 31.0259 92.9358 30.4755 92.9358 29.8178C92.9358 29.1636 93.0465 28.6079 93.2679 28.1506C93.4893 27.6934 93.8003 27.3452 94.2008 27.106C94.6014 26.8669 95.0688 26.7473 95.6029 26.7473ZM95.6029 27.6811C95.2129 27.6811 94.8966 27.8077 94.6541 28.0609C94.4152 28.3142 94.2746 28.6852 94.2325 29.1741H96.889C96.8855 28.8822 96.8363 28.6237 96.7414 28.3986C96.6501 28.1735 96.5095 27.9976 96.3198 27.871C96.1335 27.7444 95.8946 27.6811 95.6029 27.6811Z" fill="#2B495A"/>
<path d="M107.072 32.6931L106.335 29.976C106.299 29.8424 106.257 29.6806 106.208 29.4907C106.159 29.3008 106.11 29.1055 106.06 28.9051C106.011 28.7011 105.966 28.5129 105.923 28.3406C105.885 28.1682 105.855 28.0346 105.834 27.9396H105.792C105.774 28.0346 105.746 28.1682 105.707 28.3406C105.669 28.5129 105.625 28.7011 105.575 28.9051C105.526 29.1091 105.477 29.3078 105.428 29.5012C105.382 29.6947 105.34 29.86 105.301 29.9972L104.527 32.6931H103.167L101.533 26.8528H102.787L103.546 29.7545C103.595 29.9514 103.643 30.1642 103.689 30.3928C103.738 30.6214 103.78 30.8395 103.815 31.047C103.85 31.2545 103.876 31.4251 103.894 31.5588H103.936C103.95 31.4638 103.97 31.3442 103.994 31.2C104.019 31.0523 104.047 30.8993 104.079 30.741C104.11 30.5792 104.142 30.428 104.173 30.2873C104.205 30.1431 104.235 30.027 104.263 29.9391L105.159 26.8528H106.514L107.373 29.9391C107.412 30.0728 107.454 30.2416 107.499 30.4456C107.545 30.6461 107.585 30.8483 107.621 31.0523C107.659 31.2528 107.684 31.4198 107.694 31.5535H107.737C107.751 31.4339 107.775 31.2721 107.81 31.0681C107.849 30.8606 107.893 30.6408 107.942 30.4087C107.991 30.173 108.042 29.9549 108.095 29.7545L108.87 26.8528H110.103L108.459 32.6931H107.072Z" fill="#2B495A"/>
<path d="M116.27 29.765C116.27 30.2504 116.207 30.6812 116.08 31.0576C115.954 31.4339 115.769 31.7522 115.527 32.0125C115.285 32.2692 114.993 32.4662 114.652 32.6034C114.311 32.737 113.926 32.8039 113.498 32.8039C113.097 32.8039 112.73 32.737 112.396 32.6034C112.062 32.4662 111.772 32.2692 111.526 32.0125C111.284 31.7522 111.096 31.4339 110.962 31.0576C110.829 30.6812 110.762 30.2504 110.762 29.765C110.762 29.1214 110.873 28.5762 111.094 28.1295C111.319 27.6793 111.639 27.3364 112.053 27.1008C112.468 26.8651 112.962 26.7473 113.535 26.7473C114.072 26.7473 114.547 26.8651 114.958 27.1008C115.369 27.3364 115.69 27.6793 115.922 28.1295C116.154 28.5797 116.27 29.1249 116.27 29.765ZM112.038 29.765C112.038 30.1906 112.089 30.5546 112.191 30.8571C112.296 31.1596 112.458 31.3917 112.675 31.5535C112.893 31.7118 113.174 31.7909 113.519 31.7909C113.863 31.7909 114.144 31.7118 114.362 31.5535C114.58 31.3917 114.74 31.1596 114.842 30.8571C114.944 30.5546 114.995 30.1906 114.995 29.765C114.995 29.3394 114.944 28.9789 114.842 28.6835C114.74 28.3845 114.58 28.1577 114.362 28.0029C114.144 27.8446 113.861 27.7655 113.514 27.7655C113 27.7655 112.626 27.9378 112.391 28.2825C112.155 28.6272 112.038 29.1214 112.038 29.765Z" fill="#2B495A"/>
<path d="M120.65 26.7473C120.749 26.7473 120.856 26.7526 120.972 26.7631C121.088 26.7737 121.188 26.7877 121.272 26.8053L121.156 27.966C121.083 27.9449 120.991 27.9291 120.882 27.9185C120.777 27.908 120.682 27.9027 120.598 27.9027C120.376 27.9027 120.165 27.9396 119.965 28.0135C119.765 28.0838 119.587 28.1928 119.433 28.3406C119.278 28.4848 119.157 28.6659 119.069 28.884C118.981 29.102 118.937 29.3553 118.937 29.6437V32.6983H117.693V26.8581H118.663L118.832 27.8868H118.89C119.006 27.6793 119.15 27.4894 119.322 27.3171C119.494 27.1447 119.691 27.0076 119.912 26.9056C120.137 26.8 120.383 26.7473 120.65 26.7473Z" fill="#2B495A"/>
<path d="M123.597 32.6983H122.353V24.4893H123.597V32.6983Z" fill="#2B495A"/>
<path d="M127.329 32.8039C126.633 32.8039 126.074 32.5506 125.652 32.0441C125.234 31.5342 125.025 30.7832 125.025 29.7914C125.025 28.789 125.238 28.0311 125.663 27.5175C126.092 27.004 126.656 26.7473 127.355 26.7473C127.65 26.7473 127.908 26.7877 128.13 26.8686C128.351 26.946 128.541 27.0515 128.699 27.1852C128.861 27.3188 128.998 27.4683 129.11 27.6336H129.168C129.151 27.5246 129.129 27.3681 129.105 27.1641C129.084 26.9566 129.073 26.7649 129.073 26.589V24.4893H130.317V32.6983H129.347L129.126 31.9017H129.073C128.968 32.0705 128.834 32.2235 128.673 32.3607C128.515 32.4943 128.325 32.6016 128.103 32.6825C127.886 32.7634 127.627 32.8039 127.329 32.8039ZM127.676 31.7962C128.207 31.7962 128.581 31.6432 128.799 31.3372C129.017 31.0312 129.129 30.5722 129.137 29.9602V29.7967C129.137 29.1425 129.031 28.6413 128.82 28.2931C128.609 27.9414 128.225 27.7655 127.666 27.7655C127.22 27.7655 126.879 27.9466 126.643 28.3089C126.411 28.6677 126.295 29.1689 126.295 29.8125C126.295 30.4561 126.411 30.9485 126.643 31.2897C126.879 31.6274 127.223 31.7962 127.676 31.7962Z" fill="#2B495A"/>
<g clip-path="url(#clip0_4002_101202)">
<path d="M3.98438 1.44044C14.1675 -0.46303 24.7705 -0.621523 34.8777 1.8218C36.6532 4.79877 38.1399 7.97529 38.9825 11.3571C42.1398 9.71161 45.7225 9.14557 49.2298 8.88762C52.6058 8.72336 56.0429 8.83191 59.3079 9.77931C61.1853 10.366 63.226 11.2839 64.1269 13.1581C64.9635 15.1232 63.9782 17.2642 62.8063 18.854C60.4157 22.0392 57.1856 24.4444 53.97 26.7174C50.5971 28.9965 47.1161 31.1433 43.4429 32.8914C45.2678 30.7208 47.0841 28.4624 48.1423 25.7965C48.3027 25.4915 48.3843 25.0808 48.7429 24.9401C52.2267 23.0424 55.7512 20.9571 58.3137 17.8509C59.3778 16.5017 60.3864 14.5776 59.4535 12.8912C58.2669 10.9467 55.8503 10.3924 53.7688 10.0521C48.8302 9.44501 43.8509 10.3132 39.0524 11.4599C39.9619 15.4342 40.2447 19.5286 40.0495 23.5966C38.8483 17.2174 37.1459 10.8322 33.8341 5.20366C26.2748 3.20052 18.3656 2.83381 10.5991 3.46445C15.3715 7.80814 18.1789 13.9323 19.4149 20.209C20.3741 24.8608 20.6218 29.6327 20.6101 34.3726C19.5489 28.0313 18.2749 21.6228 15.4238 15.8125C12.7797 10.2131 8.77112 5.32086 3.98438 1.44044Z" fill="#24A186"/>
<path d="M4.17188 8.8289C5.30882 8.29216 6.44577 7.74365 7.57986 7.19824C11.0637 10.539 13.7661 14.6716 15.6087 19.1385C17.3927 23.45 18.4278 28.0403 19.1071 32.6508C18.5999 31.3631 18.2996 30.0053 17.8214 28.7089C15.6671 22.4029 12.2415 16.4637 7.45166 11.8147C6.42834 10.7413 5.29139 9.79385 4.17188 8.8289Z" fill="#24A186"/>
<path d="M24.6886 8.28274C25.3446 8.12425 26.0006 7.96021 26.6594 7.79883C26.8372 8.52914 27.0034 9.25945 27.1549 9.99265C28.426 9.9427 29.7 10.0983 30.9011 10.5236C30.6796 11.3039 30.4638 12.087 30.2598 12.8759C28.7905 12.3188 27.0353 12.0282 25.5981 12.8231C24.8751 13.1634 24.5777 14.2251 25.1462 14.8322C25.7263 15.4129 26.6331 15.3104 27.3853 15.3865C29.0266 15.4775 30.9448 15.2926 32.2362 16.5304C33.3586 17.9089 33.5422 20.2026 32.242 21.534C31.656 22.2233 30.8222 22.5986 30.0175 22.9507C30.1488 23.546 30.2595 24.1445 30.3526 24.7487C29.6938 24.8777 29.0407 25.0215 28.3907 25.1829C28.2594 24.5876 28.1313 23.9951 28 23.4026C26.4694 23.5258 24.9331 23.3147 23.4753 22.8395C23.6474 21.9949 23.8544 21.1589 24.0934 20.3318C25.9154 21.0474 28.1427 21.4257 29.8948 20.3407C30.7198 19.8654 30.5479 18.5076 29.6237 18.2729C27.7288 17.704 25.6151 18.2465 23.7931 17.3637C22.4811 16.7273 22.178 15.0671 22.3093 13.7443C22.4928 12.178 23.7962 11.0577 25.1546 10.4593C24.9971 9.73471 24.8398 9.01039 24.6882 8.28296L24.6886 8.28274Z" fill="#24A186"/>
<path d="M2.93675 13.4806C3.82306 12.8442 4.71797 12.2193 5.60714 11.5889C10.1812 15.5601 13.3474 20.9453 15.5862 26.5356C16.2741 28.442 17.137 30.3193 17.4665 32.3313C15.8397 28.6005 13.837 25.0222 11.3707 21.7813C9.0705 23.6204 6.88397 25.6763 5.28633 28.1723C4.4585 29.5244 3.86939 31.3164 4.63324 32.8241C5.62148 34.4636 7.60679 35.0092 9.34718 35.4168C13.4199 36.1793 17.7637 35.9828 21.6061 34.3229C25.6612 32.5866 29.0983 29.7532 32.722 27.2895C33.8764 26.5239 35.1883 25.6293 36.6432 25.8903C37.028 26.3889 36.6082 26.9727 36.2584 27.3538C34.8854 28.7088 32.9758 29.5419 31.967 31.2489C31.4743 32.0467 32.4888 32.7095 33.2119 32.5806C36.9813 32.3812 40.0336 29.8207 42.5438 27.216C43.4855 26.3303 44.4794 25.0455 45.9314 25.2832C46.1558 26.3039 45.7071 27.2777 45.1327 28.093C41.9434 32.3781 37.5704 35.8303 32.5241 37.602C27.6293 39.3765 22.3935 40.0422 17.2101 39.9982C13.5075 39.9425 9.7878 39.523 6.22228 38.4819C4.2661 37.8748 2.23998 37.0623 0.910632 35.4228C0.00116058 34.3488 -0.208887 32.8032 0.199294 31.4775C0.773615 29.4891 2.23115 27.9374 3.7123 26.5707C5.9659 24.5558 8.58377 23.0013 11.2775 21.6578C8.91032 18.5401 6.0621 15.8182 2.93697 13.4806H2.93675Z" fill="#2B495A"/>
</g>
<defs>
<clipPath id="clip0_4002_101202">
<rect width="64.4348" height="40" fill="white"/>
</clipPath>
</defs>
</svg>
